<svg xmlns="http://www.w3.org/2000/svg" width="419" height="526" viewBox="0 0 419 526">
<g>
<path d="M 231.99 377.53 C228.52,381.74 226.87,382.99 224.73,382.99 C222.68,383.00 221.70,382.34 221.00,380.50 C220.48,379.12 219.61,378.00 219.07,378.00 C216.51,378.00 215.98,365.69 218.43,363.23 C218.77,362.90 221.66,362.44 224.85,362.20 L 230.67 361.78 L 233.85 366.11 C235.59,368.48 236.90,370.80 236.75,371.25 C236.60,371.71 234.45,374.53 231.99,377.53 Z" fill="rgba(0,0,0,1)"/>
<path d="M 213.58 380.82 C210.44,377.15 210.00,375.98 210.00,371.28 C210.00,365.55 212.54,360.70 216.50,358.85 C217.60,358.33 219.62,357.26 221.00,356.46 C223.83,354.81 227.05,355.24 232.82,358.03 C237.77,360.42 240.00,364.93 240.00,372.54 C240.00,377.67 239.65,378.65 236.75,381.63 C233.59,384.89 233.28,384.98 225.33,384.99 L 217.16 385.00 ZM 215.77 380.13 C218.56,383.45 221.83,384.03 221.34,381.26 C222.03,382.53 223.00,383.00 224.73,382.99 C226.48,382.99 227.91,382.15 230.29,379.52 C228.14,382.17 228.28,382.59 229.78,382.81 C231.10,383.01 233.00,381.94 234.93,379.91 C237.61,377.11 238.00,375.99 238.00,371.09 C238.00,363.89 235.20,360.45 228.53,359.45 C219.56,358.11 215.16,360.37 212.02,367.96 C210.55,371.50 211.73,375.34 215.77,380.13 ZM 232.95 376.35 C234.99,373.82 236.62,371.65 236.75,371.25 C236.90,370.80 235.61,368.51 233.88,366.15 C235.60,368.50 237.00,370.67 237.00,371.01 C237.00,371.32 235.23,373.65 232.95,376.35 ZM 218.43 363.23 C217.11,364.55 216.66,368.72 216.91,372.29 C216.54,368.74 216.98,364.68 218.43,363.23 ZM 218.83 377.96 C218.91,377.99 218.99,378.00 219.07,378.00 C219.37,378.00 219.77,378.34 220.15,378.88 C219.90,378.61 219.63,378.41 219.38,378.32 C219.19,378.24 219.01,378.12 218.83,377.96 Z" fill="rgba(55,53,82,1)"/>
<path d="M 309.00 481.36 C308.92,481.40 308.87,481.43 308.85,481.45 C307.93,481.46 306.95,481.46 305.91,481.46 C302.73,481.45 300.17,481.41 298.08,481.34 C297.89,481.00 297.36,480.50 296.53,479.84 C294.89,478.55 291.80,477.50 288.86,477.21 C285.39,476.88 283.63,476.18 282.93,474.86 C281.92,472.98 271.15,467.00 268.78,467.00 C268.33,467.01 268.63,467.64 269.44,468.59 C269.07,468.24 268.69,467.87 268.31,467.50 C267.73,466.92 267.15,466.36 266.59,465.82 C266.38,464.74 262.81,459.00 261.90,458.44 C261.40,458.13 261.00,457.08 261.00,456.10 C261.00,455.11 260.10,453.50 259.00,452.50 C257.90,451.50 257.00,449.50 257.00,448.04 C257.00,446.58 255.88,443.86 254.50,442.00 C253.25,440.31 252.63,439.49 252.31,439.41 C251.84,434.24 251.51,425.10 250.98,407.30 C250.40,387.61 250.05,365.83 250.21,358.91 C250.33,353.63 250.25,349.73 249.99,347.37 C250.27,348.99 250.42,351.04 250.39,352.90 C250.33,355.98 250.53,372.45 250.85,389.50 C251.65,432.90 252.91,418.49 253.44,360.00 C253.82,317.44 253.73,314.30 252.03,311.38 C251.04,309.66 249.91,306.44 249.54,304.22 C249.16,302.00 247.99,299.39 246.93,298.43 C245.87,297.47 245.00,295.44 245.00,293.91 C245.00,292.01 244.37,290.93 243.00,290.50 C241.90,290.15 241.00,289.45 241.00,288.95 C241.00,288.44 237.67,284.64 233.61,280.51 C227.80,274.61 225.60,273.00 223.33,273.00 C221.68,273.00 219.71,272.14 218.73,271.00 C217.34,269.37 215.86,269.02 210.76,269.10 C200.82,269.26 198.17,270.53 206.34,271.21 C207.68,271.32 208.99,271.49 210.15,271.69 C205.63,271.00 198.44,270.75 192.46,270.97 C199.72,270.38 195.82,269.29 184.90,269.12 C178.49,269.02 177.03,269.31 175.50,271.00 C174.50,272.10 173.17,273.00 172.54,273.00 C170.61,273.00 163.14,278.97 162.48,281.05 C162.14,282.12 161.33,283.01 160.68,283.02 C159.42,283.04 153.00,290.30 153.00,291.71 C153.00,292.18 152.10,293.33 151.00,294.27 C149.84,295.26 149.00,297.22 149.00,298.94 C149.00,300.71 148.30,302.29 147.27,302.87 C145.12,304.07 142.61,318.40 144.07,321.12 C144.58,322.08 145.00,324.85 145.00,327.27 C145.00,329.69 145.34,332.01 145.75,332.42 C146.11,332.79 146.59,329.21 146.90,324.15 C146.65,333.01 146.52,347.75 146.32,373.38 C146.20,388.63 146.12,400.19 145.98,409.16 C146.00,403.57 146.00,396.91 146.00,388.89 C146.00,359.63 145.65,344.00 145.00,344.00 C144.45,344.00 143.15,344.85 142.11,345.89 C140.32,347.68 140.24,349.54 140.52,380.64 C140.68,398.71 141.13,420.48 141.50,429.00 L 142.19 444.50 L 139.60 447.94 C138.17,449.84 137.00,452.05 137.00,452.86 C137.00,453.67 136.34,455.04 135.54,455.92 C134.74,456.79 132.41,459.45 130.36,461.82 C128.31,464.20 125.03,467.03 123.07,468.11 C121.11,469.20 117.52,471.49 115.09,473.21 C111.62,475.68 109.60,476.36 105.59,476.43 C102.79,476.48 98.97,477.31 97.10,478.26 C92.92,480.40 86.20,480.51 82.36,478.51 C80.79,477.68 77.36,477.01 74.74,477.01 C70.92,477.00 69.56,476.51 67.81,474.50 C66.62,473.12 65.23,472.00 64.73,472.00 C62.97,472.00 51.00,462.22 51.00,460.79 C51.00,460.24 49.88,458.45 48.50,456.82 C47.12,455.18 46.00,453.27 46.00,452.58 C46.00,451.88 45.10,450.27 44.00,449.00 C42.56,447.34 42.00,445.26 42.00,441.57 C42.00,436.12 39.99,432.00 37.33,432.00 C37.21,432.00 37.11,432.01 37.01,432.02 C36.52,413.20 36.39,367.12 36.23,253.09 C36.08,140.31 36.02,94.67 36.43,75.37 C36.58,75.58 36.78,75.64 37.01,75.49 C39.43,74.00 42.00,66.87 42.00,61.65 C42.00,57.67 42.41,56.06 43.55,55.62 C44.39,55.29 45.78,53.56 46.61,51.76 C50.28,43.92 52.62,40.88 58.16,36.77 C59.45,35.81 61.66,34.15 63.08,33.08 C64.50,32.00 66.97,30.81 68.58,30.43 C70.19,30.04 72.32,29.01 73.33,28.14 C74.81,26.85 77.92,26.52 89.33,26.42 C97.12,26.36 104.29,26.70 105.25,27.19 C109.18,29.17 106.47,29.91 95.75,29.78 C78.58,29.57 66.61,33.91 58.88,43.15 C56.69,45.76 54.01,48.18 52.93,48.52 C50.73,49.22 47.63,54.73 46.50,59.96 C46.09,61.86 44.90,64.57 43.87,65.96 C42.05,68.43 41.99,73.94 41.93,247.50 C41.88,420.75 41.94,426.68 43.77,432.00 C44.81,435.02 46.26,440.32 46.98,443.77 C48.33,450.28 51.50,454.60 57.05,457.51 C58.45,458.24 60.48,460.48 61.55,462.47 C62.62,464.46 64.62,466.86 66.00,467.79 C68.90,469.75 82.67,474.74 88.50,475.93 C90.70,476.38 93.00,476.81 93.60,476.87 C95.20,477.06 100.71,475.16 107.00,472.26 C110.03,470.86 113.59,469.22 114.91,468.61 C116.40,467.93 117.75,466.08 118.41,463.82 C119.64,459.67 122.69,456.93 128.35,454.91 C134.07,452.85 135.36,449.58 135.20,437.50 C135.12,432.00 135.51,424.58 136.06,421.00 C137.25,413.24 137.19,351.88 135.97,343.42 C135.51,340.17 134.83,336.29 134.46,334.82 C133.96,332.80 134.35,331.56 136.02,329.82 C140.20,325.47 141.99,319.86 141.91,311.37 C141.83,302.71 142.93,298.78 146.48,295.00 C147.77,293.62 150.05,289.90 151.55,286.72 C154.15,281.18 157.97,277.00 160.43,277.00 C161.07,277.00 163.29,275.20 165.38,273.00 C167.47,270.80 170.37,268.75 171.84,268.46 C173.30,268.17 176.54,267.26 179.03,266.44 C182.57,265.28 187.25,265.06 200.53,265.41 C219.43,265.92 223.93,266.83 227.03,270.76 C228.19,272.24 231.22,274.59 233.75,275.98 C236.62,277.55 239.61,280.38 241.70,283.50 C243.55,286.25 245.88,289.40 246.88,290.50 C249.68,293.57 251.54,297.84 253.42,305.50 C254.36,309.35 256.68,315.27 258.56,318.66 C262.28,325.33 263.19,332.97 260.79,337.32 C259.90,338.93 259.53,352.75 259.37,389.91 C259.17,433.90 258.90,442.74 262.90,448.71 C264.16,450.59 265.85,452.18 268.10,454.50 C271.30,457.80 274.57,462.08 275.37,464.02 C277.80,469.86 280.09,471.22 288.82,471.98 C293.14,472.36 297.23,473.02 297.92,473.45 C300.00,474.73 306.64,474.24 309.88,472.56 C311.68,471.63 315.45,471.00 319.20,471.00 C325.75,470.99 329.44,469.47 334.96,464.48 C336.36,463.22 339.16,460.77 341.18,459.05 C343.74,456.87 345.66,453.83 347.49,449.02 C348.94,445.23 350.66,441.95 351.31,441.73 C352.15,441.45 352.56,436.89 352.69,426.42 C352.79,418.21 352.89,410.38 352.91,409.00 C352.93,407.62 352.84,330.90 352.72,238.50 C352.51,75.77 352.44,70.41 350.62,67.72 C349.58,66.19 348.34,62.83 347.85,60.25 C345.88,49.66 334.34,36.04 327.30,35.99 C325.32,35.97 317.80,33.50 314.74,31.86 C308.25,28.39 291.42,29.55 288.02,33.71 C287.19,34.73 283.35,37.32 279.50,39.45 C268.86,45.36 265.60,47.71 263.83,50.73 C260.29,56.79 259.61,70.17 259.56,136.00 C259.50,194.86 259.63,199.74 261.27,202.73 C263.35,206.55 262.70,213.30 259.99,216.01 C259.06,216.94 257.99,218.92 257.62,220.39 C256.57,224.57 253.23,225.54 244.93,224.06 C239.76,223.13 226.24,222.87 194.68,223.09 C146.11,223.42 145.51,223.35 138.33,216.74 L 133.84 212.60 L 134.51 207.05 C134.88,204.00 135.38,171.03 135.62,133.80 L 136.05 66.09 L 133.55 59.92 C130.71,52.94 124.89,45.29 121.41,43.97 C118.44,42.83 111.56,35.98 109.60,32.20 L 108.10 29.29 L 111.88 29.98 C116.35,30.80 126.16,37.00 130.75,41.91 C132.43,43.71 133.83,44.69 133.98,44.21 C133.99,44.28 134.00,44.35 134.00,44.41 C134.00,45.28 134.40,46.00 134.89,46.00 C135.38,46.00 136.54,47.91 137.48,50.25 C138.41,52.59 139.73,55.17 140.41,56.00 C141.09,56.83 142.51,60.42 143.56,64.00 C144.27,66.44 144.73,68.78 145.05,75.10 C144.53,66.29 143.74,63.93 142.56,65.11 C141.82,65.85 141.69,214.69 142.43,215.88 C142.92,216.68 158.58,217.00 197.52,217.00 L 251.93 217.00 L 253.08 214.86 C253.80,213.50 253.97,210.85 253.53,207.61 C253.15,204.80 252.83,178.43 252.84,149.00 C252.84,119.57 252.49,91.68 252.06,87.00 C251.73,83.34 251.44,96.02 251.29,118.89 L 251.51 63.50 L 253.76 58.80 C254.82,56.57 255.72,54.17 255.95,53.00 C255.81,54.11 255.00,56.47 254.04,58.49 C253.01,60.69 252.38,62.72 252.66,62.99 C253.47,63.80 257.00,58.96 257.00,57.04 C257.00,56.08 258.12,54.08 259.50,52.59 C260.88,51.11 262.00,49.25 262.00,48.45 C262.00,47.65 262.47,47.00 263.05,47.00 C263.63,47.00 264.76,45.43 265.56,43.51 C266.47,41.34 268.63,39.03 271.26,37.42 C273.59,35.99 276.62,34.04 278.00,33.08 C279.38,32.12 281.85,30.99 283.50,30.59 C285.15,30.18 287.26,29.16 288.20,28.32 C289.55,27.09 292.98,26.77 305.36,26.70 C314.87,26.64 321.33,27.01 322.16,27.66 C322.90,28.25 324.72,29.02 326.21,29.37 C334.32,31.31 350.27,47.78 352.40,56.41 C352.80,58.02 354.11,60.53 355.31,62.00 C357.36,64.49 357.52,64.53 357.84,62.65 C358.17,60.74 354.62,53.11 351.08,47.26 C352.19,49.05 353.29,51.00 354.23,52.85 L 358.47 61.20 L 358.59 92.85 C358.41,87.22 358.18,84.61 357.87,84.42 C357.04,83.91 356.79,97.96 356.93,138.11 C357.03,168.03 356.89,247.74 356.63,315.25 L 356.15 438.00 L 354.01 440.72 C352.28,442.92 351.98,444.29 352.44,447.97 C352.96,452.01 352.69,452.85 350.02,455.75 C348.38,457.54 346.73,459.00 346.36,459.00 C345.99,459.00 344.15,460.80 342.27,463.00 C340.38,465.20 338.29,467.00 337.62,467.00 C336.95,467.00 333.94,469.24 330.95,471.98 C326.73,475.84 324.75,476.97 322.20,476.98 C320.38,476.99 317.00,477.84 314.70,478.87 C312.39,479.90 309.83,481.02 309.00,481.36 ZM 296.42 456.48 C295.65,459.52 294.64,459.64 292.00,457.00 C289.72,454.72 289.47,452.93 291.20,451.20 C294.09,448.31 297.58,451.84 296.42,456.48 ZM 94.65 47.23 C91.56,49.21 89.46,47.29 90.44,43.38 C90.95,41.36 91.60,40.93 93.78,41.19 C96.05,41.45 96.44,41.92 96.15,44.00 C95.95,45.38 95.28,46.83 94.65,47.23 ZM 146.45 207.32 C146.11,198.23 145.98,179.77 145.96,147.19 C145.95,143.76 145.95,140.45 145.94,137.28 C145.96,138.98 145.97,140.72 145.98,142.50 L 146.45 207.32 ZM 251.19 144.38 C251.19,145.08 251.19,145.79 251.19,146.50 L 251.09 214.50 L 235.79 215.28 C229.51,215.60 217.00,215.74 203.31,215.75 C217.63,215.70 231.09,215.50 237.71,215.17 L 250.91 214.50 L 251.19 144.38 ZM 360.25 345.15 C361.92,343.47 361.77,221.00 360.09,216.68 C359.61,215.43 359.29,206.23 359.13,187.93 C359.37,205.25 359.71,214.64 360.15,216.65 C361.84,224.42 361.94,343.45 360.25,345.15 ZM 264.18 463.50 C264.26,463.60 264.33,463.69 264.41,463.79 C262.55,462.11 261.17,461.00 260.87,461.00 C260.39,461.00 260.00,460.20 260.00,459.22 C260.00,458.47 259.47,457.36 258.72,456.46 C259.44,456.88 260.00,457.95 260.00,458.97 C260.00,460.09 260.50,461.00 261.11,461.00 C261.71,461.00 263.10,462.12 264.18,463.50 ZM 285.38 478.33 C286.29,478.59 287.37,478.99 288.35,479.43 C289.46,479.94 290.80,480.46 291.92,480.84 C290.41,480.58 289.39,480.22 288.50,479.71 C287.50,479.14 286.34,478.64 285.38,478.33 ZM 154.45 215.15 C150.19,214.99 147.50,214.81 147.18,214.61 C147.16,214.60 147.14,214.58 147.12,214.55 L 154.00 215.11 C154.14,215.12 154.29,215.13 154.45,215.15 ZM 255.97 451.88 C256.30,453.04 256.77,454.14 257.26,454.97 C256.52,454.07 256.00,452.99 256.00,452.24 C256.00,452.14 255.99,452.02 255.97,451.88 ZM 148.30 309.97 C148.58,308.86 148.90,307.99 149.27,307.30 C149.54,306.81 149.79,306.30 150.01,305.80 C149.69,306.65 149.30,307.58 148.89,308.51 C148.68,309.00 148.48,309.46 148.30,309.97 ZM 37.66 443.37 C37.93,444.28 38.22,445.01 38.48,445.43 C39.18,446.57 40.05,448.73 40.39,450.22 C40.05,448.73 39.03,446.38 38.13,445.00 C37.96,444.73 37.80,444.27 37.66,443.37 ZM 319.36 480.94 C320.17,480.71 320.68,480.46 320.77,480.20 C320.97,479.58 322.80,478.77 324.82,478.40 C322.80,478.77 320.96,479.61 320.74,480.28 C320.65,480.55 320.21,480.77 319.36,480.94 ZM 253.54 445.76 C253.91,446.35 254.35,447.27 254.77,448.30 C254.54,447.79 254.29,447.27 254.03,446.79 C253.85,446.45 253.69,446.12 253.54,445.76 ZM 131.10 39.79 C129.65,38.28 128.03,37.00 127.25,37.00 C128.09,37.00 129.68,38.26 131.10,39.79 ZM 136.13 459.22 C137.90,456.85 138.95,454.57 140.44,450.71 C141.15,448.88 141.76,447.29 142.30,445.82 C141.77,447.31 141.16,448.88 140.45,450.71 C138.96,454.57 137.90,456.85 136.13,459.22 ZM 275.21 473.59 C275.64,473.85 275.97,474.00 276.15,474.00 C276.72,474.00 278.33,474.90 279.73,476.00 C278.33,474.90 276.67,474.00 276.03,474.00 C275.89,474.00 275.61,473.85 275.21,473.59 ZM 38.69 58.37 C39.45,56.71 40.00,55.15 40.00,54.56 C40.00,53.80 41.71,51.00 43.81,48.34 C41.71,51.00 40.00,53.82 40.00,54.59 C40.00,55.20 39.45,56.75 38.69,58.37 ZM 257.56 49.25 C256.84,50.06 256.21,51.31 256.02,52.26 C256.15,51.39 256.79,50.11 257.56,49.25 ZM 179.00 274.49 C180.38,274.07 181.81,273.24 182.20,272.64 C182.23,272.59 182.28,272.54 182.35,272.49 C182.27,272.56 182.21,272.63 182.17,272.69 C181.80,273.26 180.38,274.07 179.00,274.49 ZM 213.92 272.65 C214.09,272.73 214.21,272.81 214.29,272.89 C214.90,273.50 216.15,274.00 217.06,274.00 C216.15,274.00 214.93,273.53 214.36,272.96 C214.25,272.85 214.11,272.75 213.92,272.65 ZM 37.52 60.83 C37.56,60.73 37.59,60.64 37.63,60.56 C37.59,60.65 37.56,60.74 37.52,60.83 Z" fill="rgba(81,74,164,1)"/>
<path d="M 88.50 475.93 C82.67,474.74 68.90,469.75 66.00,467.79 C64.62,466.86 62.62,464.46 61.55,462.47 C60.48,460.48 58.45,458.24 57.05,457.51 C51.50,454.60 48.33,450.28 46.98,443.77 C46.26,440.32 44.81,435.02 43.77,432.00 C41.94,426.68 41.88,420.75 41.93,247.50 C41.99,73.94 42.05,68.43 43.87,65.96 C44.90,64.57 46.09,61.86 46.50,59.96 C47.63,54.73 50.73,49.22 52.93,48.52 C54.01,48.18 56.69,45.76 58.88,43.15 C66.61,33.91 78.58,29.57 95.75,29.78 C104.24,29.88 107.71,29.44 106.83,28.26 C107.85,28.85 109.10,29.36 110.21,29.67 L 108.10 29.29 L 109.60 32.20 C111.56,35.98 118.44,42.83 121.41,43.97 C124.89,45.29 130.71,52.94 133.55,59.92 L 136.05 66.09 L 135.62 133.80 C135.38,171.03 134.88,204.00 134.51,207.05 L 133.84 212.60 L 138.33 216.74 C145.51,223.35 146.11,223.42 194.68,223.09 C226.24,222.87 239.76,223.13 244.93,224.06 C253.23,225.54 256.57,224.57 257.62,220.39 C257.99,218.92 259.06,216.94 259.99,216.01 C262.70,213.30 263.35,206.55 261.27,202.73 C259.63,199.74 259.50,194.86 259.56,136.00 C259.61,70.17 260.29,56.79 263.83,50.73 C265.60,47.71 268.86,45.36 279.50,39.45 C283.35,37.32 287.19,34.73 288.02,33.71 C291.42,29.55 308.25,28.39 314.74,31.86 C317.80,33.50 325.32,35.97 327.30,35.99 C334.34,36.04 345.88,49.66 347.85,60.25 C348.34,62.83 349.58,66.19 350.62,67.72 C352.44,70.41 352.51,75.77 352.72,238.50 C352.84,330.90 352.93,407.62 352.91,409.00 C352.89,410.38 352.79,418.21 352.69,426.42 C352.56,436.89 352.15,441.45 351.31,441.73 C350.66,441.95 348.94,445.23 347.49,449.02 C345.66,453.83 343.74,456.87 341.18,459.05 C339.16,460.77 336.36,463.22 334.96,464.48 C329.44,469.47 325.75,470.99 319.20,471.00 C315.45,471.00 311.68,471.63 309.88,472.56 C306.64,474.24 300.00,474.73 297.92,473.45 C297.23,473.02 293.14,472.36 288.82,471.98 C280.09,471.22 277.80,469.86 275.37,464.02 C274.57,462.08 271.30,457.80 268.10,454.50 C265.85,452.18 264.16,450.59 262.90,448.71 C258.90,442.74 259.17,433.90 259.37,389.91 C259.53,352.75 259.90,338.93 260.79,337.32 C263.19,332.97 262.28,325.33 258.56,318.66 C256.68,315.27 254.36,309.35 253.42,305.50 C251.54,297.84 249.68,293.57 246.88,290.50 C245.88,289.40 243.55,286.25 241.70,283.50 C239.61,280.38 236.62,277.55 233.75,275.98 C231.22,274.59 228.19,272.24 227.03,270.76 C223.93,266.83 219.43,265.92 200.53,265.41 C187.25,265.06 182.57,265.28 179.03,266.44 C176.54,267.26 173.30,268.17 171.84,268.46 C170.37,268.75 167.47,270.80 165.38,273.00 C163.29,275.20 161.07,277.00 160.43,277.00 C157.97,277.00 154.15,281.18 151.55,286.72 C150.05,289.90 147.77,293.62 146.48,295.00 C142.93,298.78 141.83,302.71 141.91,311.37 C141.99,319.86 140.20,325.47 136.02,329.82 C134.35,331.56 133.96,332.80 134.46,334.82 C134.83,336.29 135.51,340.17 135.97,343.42 C137.19,351.88 137.25,413.24 136.06,421.00 C135.51,424.58 135.12,432.00 135.20,437.50 C135.36,449.58 134.07,452.85 128.35,454.91 C122.69,456.93 119.64,459.67 118.41,463.82 C117.75,466.08 116.40,467.93 114.91,468.61 C113.59,469.22 110.03,470.86 107.00,472.26 C100.71,475.16 95.20,477.06 93.60,476.87 C93.00,476.81 90.70,476.38 88.50,475.93 ZM 296.42 456.48 C297.58,451.84 294.09,448.31 291.20,451.20 C289.47,452.93 289.72,454.72 292.00,457.00 C294.64,459.64 295.65,459.52 296.42,456.48 ZM 94.65 47.23 C95.28,46.83 95.95,45.38 96.15,44.00 C96.44,41.92 96.05,41.45 93.78,41.19 C91.60,40.93 90.95,41.36 90.44,43.38 C89.46,47.29 91.56,49.21 94.65,47.23 ZM 36.00 69.79 C36.00,76.84 36.89,77.10 40.01,70.97 C40.04,70.93 40.06,70.88 40.08,70.83 C39.19,73.06 38.09,74.83 37.01,75.49 C35.95,76.15 35.69,72.72 36.01,68.78 C36.00,69.11 36.00,69.45 36.00,69.79 ZM 102.64 26.78 C99.68,26.53 94.65,26.38 89.33,26.42 C81.89,26.49 77.97,26.65 75.74,27.11 C77.98,26.65 81.89,26.48 89.33,26.41 C96.40,26.35 100.19,26.41 102.64,26.78 ZM 118.71 32.88 C116.12,31.42 113.71,30.35 112.02,30.00 C112.05,30.01 112.09,30.01 112.12,30.01 C113.29,30.01 115.82,31.18 118.71,32.88 ZM 134.00 44.08 C134.00,44.09 134.00,44.10 134.00,44.11 C134.00,44.81 132.54,43.83 130.75,41.91 C130.22,41.35 129.63,40.77 128.98,40.19 C129.66,40.78 130.27,41.36 130.78,41.90 C132.53,43.75 133.97,44.72 134.00,44.08 ZM 127.25 37.00 C128.03,37.00 129.64,38.27 131.09,39.77 C129.63,38.27 128.02,37.00 127.25,37.00 Z" fill="rgba(77,70,180,1)"/>
<path d="M 309.00 481.36 C309.83,481.02 312.39,479.90 314.70,478.87 C317.00,477.84 320.38,476.99 322.20,476.98 C324.75,476.97 326.73,475.84 330.95,471.98 C333.94,469.24 336.95,467.00 337.62,467.00 C338.29,467.00 340.38,465.20 342.27,463.00 C344.15,460.80 345.99,459.00 346.36,459.00 C346.73,459.00 348.38,457.54 350.02,455.75 C352.69,452.85 352.96,452.01 352.44,447.97 C351.98,444.29 352.28,442.92 354.01,440.72 L 356.15 438.00 L 356.63 315.25 C356.89,247.74 357.03,168.03 356.93,138.11 C356.79,97.96 357.04,83.91 357.87,84.42 C358.69,84.93 359.00,102.80 359.00,149.49 C359.00,193.75 359.34,214.75 360.09,216.68 C360.56,217.89 360.91,228.21 361.13,242.53 C361.13,242.35 361.12,242.17 361.11,242.00 L 360.46 228.50 L 359.67 238.00 C359.24,243.23 358.97,253.35 359.08,260.50 C359.18,267.65 358.94,286.90 358.54,303.27 C357.99,325.79 358.11,334.30 359.06,338.25 C359.80,341.33 360.22,342.49 360.64,342.23 C360.52,343.98 360.39,345.00 360.25,345.15 C359.29,346.11 358.98,356.84 358.92,391.45 C358.86,420.45 358.63,435.44 357.93,442.73 C357.81,442.16 357.45,442.41 356.50,443.36 C355.67,444.18 355.00,445.79 355.00,446.93 C355.00,448.07 355.40,449.00 355.89,449.00 C356.01,449.00 356.13,448.97 356.24,448.92 C355.17,449.80 353.61,453.10 353.80,454.13 C353.87,454.48 353.04,455.56 351.96,456.54 C350.88,457.51 350.00,458.81 350.00,459.42 C350.00,461.11 341.14,470.00 339.47,470.00 C338.66,470.00 338.00,470.37 338.00,470.83 C338.00,472.32 328.60,477.72 324.82,478.40 C322.80,478.77 320.97,479.58 320.77,480.20 C320.55,480.85 317.61,481.48 313.94,481.67 C310.40,481.84 308.17,481.71 309.00,481.36 ZM 76.61 481.18 C76.33,480.72 74.17,479.74 71.80,479.00 C66.28,477.26 58.87,473.09 57.19,470.79 C56.47,469.81 55.45,469.00 54.91,469.00 C54.02,469.00 50.95,466.02 47.01,461.34 C45.37,459.39 43.83,457.21 42.65,455.20 C43.24,455.73 43.61,455.66 43.83,455.02 C44.31,453.58 42.31,451.36 41.37,452.29 C41.31,452.36 41.27,452.45 41.24,452.55 C40.84,451.67 40.55,450.88 40.39,450.22 C40.05,448.73 39.18,446.57 38.48,445.43 C38.33,445.19 38.17,444.84 38.01,444.42 C38.22,444.88 38.47,445.33 38.75,445.76 L 40.50 448.45 L 40.82 445.16 C41.13,441.99 39.70,439.00 37.88,439.00 C37.22,439.00 36.96,439.77 37.02,440.87 C36.80,439.84 36.61,438.74 36.48,437.68 C35.88,432.90 36.02,432.00 37.33,432.00 C39.99,432.00 42.00,436.12 42.00,441.57 C42.00,445.26 42.56,447.34 44.00,449.00 C45.10,450.27 46.00,451.88 46.00,452.58 C46.00,453.27 47.12,455.18 48.50,456.82 C49.88,458.45 51.00,460.24 51.00,460.79 C51.00,462.22 62.97,472.00 64.73,472.00 C65.23,472.00 66.62,473.12 67.81,474.50 C69.56,476.51 70.92,477.00 74.74,477.01 C77.36,477.01 80.79,477.68 82.36,478.51 C86.20,480.51 92.92,480.40 97.10,478.26 C98.97,477.31 102.79,476.48 105.59,476.43 C109.60,476.36 111.62,475.68 115.09,473.21 C117.52,471.49 121.11,469.20 123.07,468.11 C125.03,467.03 128.31,464.20 130.36,461.82 C132.41,459.45 134.74,456.79 135.54,455.92 C136.34,455.04 137.00,453.67 137.00,452.86 C137.00,452.05 138.17,449.84 139.60,447.94 L 142.19 444.50 L 141.50 429.00 C141.13,420.48 140.68,398.71 140.52,380.64 C140.24,349.54 140.32,347.68 142.11,345.89 C143.15,344.85 144.45,344.00 145.00,344.00 C145.14,344.00 145.26,344.68 145.37,346.01 C144.94,346.08 143.94,346.50 143.00,347.00 C141.30,347.91 141.17,349.07 141.55,360.25 C141.78,366.99 142.19,387.35 142.47,405.50 C142.74,423.65 142.98,439.17 143.01,440.00 C143.05,441.07 143.39,440.95 144.25,439.55 C144.11,440.14 143.96,440.71 143.80,441.27 C143.01,444.11 141.92,446.87 140.44,450.71 C137.83,457.48 136.55,459.37 130.45,465.46 C124.49,471.40 121.17,474.00 119.53,474.00 C118.73,474.00 117.27,474.84 116.29,475.86 C115.31,476.88 113.01,478.00 111.19,478.34 C109.73,478.62 108.03,479.30 106.99,479.99 C107.00,479.96 107.00,479.93 107.00,479.89 C107.00,478.56 104.59,478.81 101.36,480.49 L 98.65 481.91 C96.64,481.97 94.14,482.00 90.99,482.00 C83.36,482.00 76.89,481.63 76.61,481.18 ZM 146.44 207.14 C146.62,212.19 146.87,214.42 147.18,214.61 C148.90,215.67 217.81,216.19 235.79,215.28 L 251.09 214.50 L 251.19 146.50 C251.25,106.96 251.61,82.06 252.06,87.00 C252.49,91.68 252.84,119.57 252.84,149.00 C252.83,178.43 253.15,204.80 253.53,207.61 C253.97,210.85 253.80,213.50 253.08,214.86 L 251.93 217.00 L 197.52 217.00 C175.98,217.00 161.56,216.90 152.90,216.68 L 150.00 215.69 L 146.50 214.50 L 146.44 207.14 ZM 355.31 62.00 C354.11,60.53 352.80,58.02 352.40,56.41 C350.27,47.78 334.32,31.31 326.21,29.37 C324.72,29.02 322.90,28.25 322.16,27.66 C321.33,27.01 314.87,26.64 305.36,26.70 C292.98,26.77 289.55,27.09 288.20,28.32 C287.26,29.16 285.15,30.18 283.50,30.59 C281.85,30.99 279.38,32.12 278.00,33.08 C276.62,34.04 273.59,35.99 271.26,37.42 C268.63,39.03 266.47,41.34 265.56,43.51 C264.76,45.43 263.63,47.00 263.05,47.00 C262.47,47.00 262.00,47.65 262.00,48.45 C262.00,49.25 260.88,51.11 259.50,52.59 C258.12,54.08 257.00,56.08 257.00,57.04 C257.00,58.96 253.47,63.80 252.66,62.99 C252.38,62.72 253.01,60.69 254.04,58.49 C255.08,56.30 255.95,53.71 255.97,52.75 C255.98,51.79 256.70,50.21 257.56,49.25 C258.42,48.29 260.56,45.61 262.31,43.31 C266.18,38.22 277.47,29.00 279.84,29.00 C280.79,29.00 282.33,28.10 283.27,27.00 C285.19,24.75 286.76,24.62 309.88,24.79 C322.57,24.89 324.51,25.13 326.38,26.82 C327.55,27.87 329.74,29.03 331.25,29.39 C332.76,29.75 334.00,30.48 334.00,31.02 C334.00,31.56 334.59,32.00 335.32,32.00 C336.71,32.00 341.30,35.71 346.74,41.21 C348.77,43.26 351.72,48.04 354.07,52.62 L 354.04 55.08 C354.02,56.50 354.30,57.97 354.67,58.33 C355.40,59.07 356.50,59.17 356.85,58.67 C357.57,60.51 357.96,61.96 357.84,62.65 C357.52,64.53 357.36,64.49 355.31,62.00 ZM 36.00 69.79 C36.00,67.70 36.14,65.92 36.43,64.35 C36.41,64.67 36.44,64.91 36.54,65.06 C37.69,66.93 40.00,63.81 40.69,59.43 C41.32,55.51 44.59,49.44 48.09,45.68 C49.10,44.59 49.68,43.29 49.37,42.79 C48.84,41.94 43.34,48.54 41.02,52.33 C41.72,51.17 42.71,49.73 43.81,48.34 C45.90,45.68 47.92,42.70 48.29,41.73 C48.65,40.76 50.54,39.03 52.48,37.88 C54.41,36.74 56.00,35.39 56.00,34.88 C56.00,34.37 57.12,33.52 58.50,33.00 C59.88,32.48 61.00,31.62 61.00,31.10 C61.00,30.58 62.31,29.87 63.92,29.52 C65.52,29.17 67.76,28.07 68.90,27.09 C70.78,25.45 77.90,24.10 85.11,23.59 C84.61,23.71 84.23,23.85 84.00,24.00 C82.96,24.67 84.97,24.97 90.50,24.97 C96.03,24.97 98.04,24.67 97.00,24.00 C96.76,23.84 96.34,23.70 95.79,23.57 C96.65,23.64 97.45,23.74 98.18,23.87 C101.75,24.49 106.02,25.00 107.68,25.00 C109.42,25.00 111.45,25.84 112.50,27.00 C113.50,28.10 115.12,29.00 116.12,29.00 C117.11,29.00 118.73,29.84 119.71,30.88 C120.69,31.91 122.51,33.06 123.75,33.44 C124.99,33.82 126.00,34.78 126.00,35.57 C126.00,36.36 126.56,37.00 127.25,37.00 C128.83,37.00 134.00,42.40 134.00,44.06 C134.00,44.74 132.55,43.77 130.78,41.90 C126.37,37.25 115.03,30.01 112.12,30.01 C110.81,30.00 108.33,29.16 106.62,28.14 C103.94,26.55 101.50,26.30 89.33,26.41 C77.93,26.52 74.81,26.85 73.33,28.14 C72.32,29.01 70.19,30.04 68.58,30.43 C66.97,30.81 64.50,32.00 63.08,33.08 C61.66,34.15 59.45,35.81 58.16,36.77 C52.62,40.88 50.28,43.92 46.61,51.76 C45.78,53.56 44.39,55.29 43.55,55.62 C42.41,56.06 42.00,57.67 42.00,61.65 C42.00,65.09 41.27,68.50 40.01,70.97 C36.89,77.10 36.00,76.84 36.00,69.79 ZM 145.75 332.42 C145.34,332.01 145.00,329.69 145.00,327.27 C145.00,324.85 144.58,322.08 144.07,321.12 C142.61,318.40 145.12,304.07 147.27,302.87 C148.30,302.29 149.00,300.71 149.00,298.94 C149.00,297.22 149.84,295.26 151.00,294.27 C152.10,293.33 153.00,292.18 153.00,291.71 C153.00,290.30 159.42,283.04 160.68,283.02 C161.33,283.01 162.14,282.12 162.48,281.05 C163.14,278.97 170.61,273.00 172.54,273.00 C173.17,273.00 174.50,272.10 175.50,271.00 C177.03,269.31 178.49,269.02 184.90,269.12 C196.61,269.30 200.25,270.54 190.70,271.09 C186.41,271.34 182.58,272.04 182.20,272.64 C181.81,273.24 180.38,274.07 179.00,274.49 C173.69,276.11 167.72,280.48 161.49,287.31 C157.92,291.22 155.00,294.93 155.00,295.56 C155.00,296.18 154.10,297.73 153.00,299.00 C151.90,300.27 151.00,301.93 151.00,302.70 C151.00,303.47 150.22,305.54 149.27,307.30 C148.05,309.57 147.39,313.80 147.02,321.84 C146.73,328.08 146.16,332.84 145.75,332.42 ZM 229.48 282.02 C229.47,282.02 229.46,282.01 229.44,282.00 C227.50,280.62 224.30,278.26 222.32,276.75 C220.34,275.24 217.98,274.00 217.06,274.00 C216.15,274.00 214.90,273.50 214.29,272.89 C213.68,272.28 210.11,271.53 206.34,271.21 C198.17,270.53 200.82,269.26 210.76,269.10 C215.86,269.02 217.34,269.37 218.73,271.00 C219.71,272.14 221.68,273.00 223.33,273.00 C225.60,273.00 227.80,274.61 233.61,280.51 C237.67,284.64 241.00,288.44 241.00,288.95 C241.00,289.45 241.90,290.15 243.00,290.50 C244.37,290.93 245.00,292.01 245.00,293.91 C245.00,295.44 245.87,297.47 246.93,298.43 C247.99,299.39 249.16,302.00 249.54,304.22 C249.91,306.44 251.04,309.66 252.03,311.38 C253.73,314.30 253.82,317.44 253.44,360.00 C252.92,417.56 251.69,432.43 250.89,391.53 L 251.43 395.50 L 252.15 387.50 C253.18,376.05 253.51,328.60 252.60,321.55 C252.18,318.28 251.20,314.69 250.42,313.58 C249.64,312.47 249.00,309.70 249.00,307.43 C249.00,304.58 248.38,302.75 247.00,301.50 C245.90,300.50 245.00,298.71 245.00,297.51 C245.00,294.81 238.90,286.82 235.41,284.95 C233.99,284.19 232.21,282.37 231.45,280.91 C230.68,279.42 228.96,278.03 227.54,277.76 C223.99,277.08 224.36,278.08 229.02,281.66 C229.17,281.78 229.32,281.90 229.48,282.02 ZM 293.50 481.32 C292.40,481.07 290.08,480.22 288.35,479.43 C286.62,478.64 284.54,478.00 283.73,478.00 C282.93,478.00 281.13,477.10 279.73,476.00 C278.33,474.90 276.72,474.00 276.15,474.00 C275.58,474.00 273.40,472.43 271.31,470.50 C269.21,468.58 268.08,467.01 268.78,467.00 C271.15,467.00 281.92,472.98 282.93,474.86 C283.63,476.18 285.39,476.88 288.86,477.21 C291.80,477.50 294.89,478.55 296.53,479.84 C299.37,482.08 298.58,482.46 293.50,481.32 ZM 264.18 463.50 C263.10,462.12 261.71,461.00 261.11,461.00 C260.50,461.00 260.00,460.09 260.00,458.97 C260.00,457.85 259.33,456.68 258.51,456.37 C257.69,456.05 256.52,453.94 255.91,451.68 C255.30,449.41 254.17,446.66 253.40,445.56 C252.63,444.46 252.00,442.44 252.00,441.08 C252.00,438.70 252.09,438.73 254.50,442.00 C255.88,443.86 257.00,446.58 257.00,448.04 C257.00,449.50 257.90,451.50 259.00,452.50 C260.10,453.50 261.00,455.11 261.00,456.10 C261.00,457.08 261.40,458.13 261.90,458.44 C262.90,459.06 267.16,466.00 266.54,466.00 C266.32,466.00 265.26,464.88 264.18,463.50 ZM 145.81 358.84 C145.94,366.22 146.00,376.29 146.00,388.89 C146.00,418.05 146.04,429.18 144.82,436.65 C145.35,431.22 145.62,417.84 145.79,391.75 C145.87,378.86 145.87,367.17 145.81,358.84 ZM 144.87 72.44 C145.66,82.67 145.92,104.52 145.95,145.56 L 145.93 142.00 C145.68,110.85 145.25,83.50 144.87,72.44 ZM 245.00 216.00 C243.83,216.76 244.11,216.97 246.25,216.98 C247.76,216.99 249.00,216.55 249.00,216.00 C249.00,214.74 246.96,214.74 245.00,216.00 ZM 142.08 94.47 C142.19,77.32 142.35,65.32 142.56,65.11 C143.09,64.58 143.54,64.76 143.92,65.93 C143.57,65.37 143.18,65.00 142.88,65.00 C142.56,65.00 142.27,76.53 142.08,94.47 ZM 249.86 346.67 C249.70,345.92 249.52,345.30 249.32,344.90 C248.62,343.47 247.95,335.29 247.66,324.67 C247.28,311.03 246.82,306.45 245.71,305.17 C245.07,304.44 244.17,302.73 243.50,301.02 C244.18,302.73 245.07,304.44 245.72,305.18 C246.84,306.47 247.31,311.11 247.72,325.18 C248.05,336.38 248.70,344.05 249.38,344.91 C249.57,345.15 249.73,345.73 249.86,346.67 ZM 240.89 296.00 C240.37,296.00 239.61,295.21 239.22,294.25 C238.59,292.73 237.42,290.82 236.03,288.93 C237.54,290.90 238.74,292.82 239.28,294.25 C239.64,295.21 240.37,296.00 240.89,296.00 ZM 38.52 58.71 C38.33,59.12 38.13,59.53 37.92,59.93 C37.70,60.35 37.50,60.77 37.33,61.18 C37.53,60.68 37.75,60.20 38.00,59.74 C38.18,59.40 38.36,59.06 38.52,58.71 ZM 142.43 215.88 C142.42,215.88 142.42,215.87 142.42,215.85 C142.46,215.90 142.52,215.94 142.58,215.99 C142.50,215.95 142.45,215.92 142.43,215.88 Z" fill="rgba(95,88,179,1)"/>
<path d="M 142.33 215.75 C141.82,215.06 141.49,210.00 141.59,204.50 C141.69,199.00 141.82,165.36 141.88,129.75 C141.95,93.04 142.38,65.00 142.88,65.00 C143.37,65.00 144.12,66.01 144.56,67.25 C145.00,68.49 145.61,102.12 145.93,142.00 L 146.50 214.50 L 153.50 216.89 L 148.37 216.94 C145.37,216.98 142.87,216.48 142.33,215.75 ZM 250.63 389.68 C250.20,386.48 249.99,375.41 250.17,365.08 C250.39,352.27 250.14,345.86 249.38,344.91 C248.70,344.05 248.05,336.38 247.72,325.18 C247.31,311.11 246.84,306.47 245.72,305.18 C244.91,304.26 243.71,301.81 243.05,299.75 C242.39,297.69 241.42,296.00 240.89,296.00 C240.37,296.00 239.64,295.21 239.28,294.25 C238.00,290.86 232.99,284.71 229.02,281.66 C224.36,278.08 223.99,277.08 227.54,277.76 C228.96,278.03 230.68,279.42 231.45,280.91 C232.21,282.37 233.99,284.19 235.41,284.95 C238.90,286.82 245.00,294.81 245.00,297.51 C245.00,298.71 245.90,300.50 247.00,301.50 C248.38,302.75 249.00,304.58 249.00,307.43 C249.00,309.70 249.64,312.47 250.42,313.58 C251.20,314.69 252.18,318.28 252.60,321.55 C253.51,328.60 253.18,376.05 252.15,387.50 L 251.43 395.50 ZM 143.01 440.00 C142.98,439.17 142.74,423.65 142.47,405.50 C142.19,387.35 141.78,366.99 141.55,360.25 C141.17,349.07 141.30,347.91 143.00,347.00 C144.03,346.45 145.14,346.00 145.47,346.00 C145.80,346.00 145.95,366.59 145.79,391.75 C145.58,425.54 145.18,438.02 144.28,439.50 C143.40,440.94 143.05,441.08 143.01,440.00 ZM 359.06 338.25 C358.11,334.30 357.99,325.79 358.54,303.27 C358.94,286.90 359.18,267.65 359.08,260.50 C358.97,253.35 359.24,243.23 359.67,238.00 L 360.46 228.50 L 361.11 242.00 C362.03,261.10 362.02,339.10 361.09,341.48 C360.47,343.06 360.06,342.40 359.06,338.25 ZM 36.54 65.06 C36.15,64.44 36.77,62.13 37.92,59.93 C39.06,57.74 40.00,55.33 40.00,54.59 C40.00,52.66 48.70,41.71 49.37,42.79 C49.68,43.29 49.10,44.59 48.09,45.68 C44.59,49.44 41.32,55.51 40.69,59.43 C40.00,63.81 37.69,66.93 36.54,65.06 ZM 38.75 445.76 C36.90,442.92 36.40,439.00 37.88,439.00 C39.70,439.00 41.13,441.99 40.82,445.16 L 40.50 448.45 ZM 84.00 24.00 C84.82,23.47 87.75,23.03 90.50,23.03 C93.25,23.03 96.18,23.47 97.00,24.00 C98.04,24.67 96.03,24.97 90.50,24.97 C84.97,24.97 82.96,24.67 84.00,24.00 ZM 101.36 480.49 C104.59,478.81 107.00,478.56 107.00,479.89 C107.00,481.08 104.45,482.00 101.17,481.99 L 98.50 481.99 ZM 355.00 446.93 C355.00,445.79 355.67,444.18 356.50,443.36 C357.83,442.02 358.00,442.08 358.00,443.85 C358.00,446.52 356.99,449.00 355.89,449.00 C355.40,449.00 355.00,448.07 355.00,446.93 ZM 354.67 58.33 C354.30,57.97 354.02,56.50 354.04,55.08 L 354.07 52.50 L 355.50 55.00 C356.29,56.38 356.95,57.84 356.96,58.25 C357.01,59.18 355.57,59.23 354.67,58.33 ZM 245.00 216.00 C246.96,214.74 249.00,214.74 249.00,216.00 C249.00,216.55 247.76,216.99 246.25,216.98 C244.11,216.97 243.83,216.76 245.00,216.00 ZM 42.07 454.59 C41.33,453.69 41.01,452.66 41.37,452.29 C42.31,451.36 44.31,453.58 43.83,455.02 C43.55,455.85 43.01,455.71 42.07,454.59 Z" fill="rgba(114,108,193,1)"/>
<path d="M 215.77 380.13 C211.73,375.34 210.55,371.50 212.02,367.96 C215.16,360.37 219.56,358.11 228.53,359.45 C235.20,360.45 238.00,363.89 238.00,371.09 C238.00,375.99 237.61,377.11 234.93,379.91 C233.00,381.94 231.10,383.01 229.78,382.81 C227.90,382.53 228.16,381.95 232.35,377.06 C234.91,374.07 237.00,371.34 237.00,371.01 C237.00,370.67 235.58,368.46 233.83,366.09 L 230.67 361.78 L 224.85 362.20 C221.66,362.44 218.77,362.90 218.43,363.23 C215.79,365.88 216.50,377.21 219.38,378.32 C220.12,378.60 220.97,379.77 221.27,380.92 C222.09,384.07 218.67,383.59 215.77,380.13 Z" fill="rgba(5,5,5,1)"/>
</g>
</svg>